<svg viewBox="0 0 512 512" fill="none" xmlns="http://www.w3.org/2000/svg">
  <defs>
    <filter id="metaball" x="-20%" y="-20%" width="140%" height="140%">
      <feGaussianBlur in="SourceGraphic" stdDeviation="4"/>
      <feColorMatrix type="matrix" values="1 0 0 0 0 0 1 0 0 0 0 0 1 0 0 0 0 0 24 -11"/>
    </filter>
  </defs>

  <!-- Background (far) — opacity 0.2 -->
  <g filter="url(#metaball)" stroke="oklch(0.704 0.140 181)" stroke-linecap="round" stroke-linejoin="round" opacity="0.2" transform="translate(44,100) scale(0.40)">
    <path d="M265 480 L260 320 L220 260 L188 210" stroke-width="24"/>
    <path d="M188 210 L155 168" stroke-width="18"/>
    <path d="M155 168 L125 125" stroke-width="15"/>
    <path d="M155 168 L178 120" stroke-width="15"/>
    <path d="M260 380 L312 318 L352 268" stroke-width="21"/>
    <path d="M352 268 L388 222" stroke-width="16"/>
    <path d="M388 222 L415 180" stroke-width="14"/>
    <path d="M388 222 L365 175" stroke-width="14"/>
    <path d="M260 320 L275 248 L282 188" stroke-width="18"/>
    <path d="M282 188 L262 138" stroke-width="14"/>
    <path d="M282 188 L312 142" stroke-width="14"/>
  </g>
  <g filter="url(#metaball)" stroke="oklch(0.704 0.140 181)" stroke-linecap="round" stroke-linejoin="round" opacity="0.18" transform="translate(300,120) scale(0.33)">
    <path d="M255 480 L252 375 L225 322 L205 280" stroke-width="17"/>
    <path d="M205 280 L180 242" stroke-width="14"/>
    <path d="M205 280 L225 240" stroke-width="14"/>
    <path d="M252 420 L290 368 L318 322" stroke-width="15"/>
    <path d="M318 322 L342 285" stroke-width="12"/>
    <path d="M252 375 L262 318 L268 268" stroke-width="15"/>
    <path d="M268 268 L290 228" stroke-width="12"/>
  </g>

  <!-- Midground — opacity 0.5 -->
  <g filter="url(#metaball)" stroke="oklch(0.704 0.140 181)" stroke-linecap="round" stroke-linejoin="round" opacity="0.5" transform="translate(232,68) scale(0.48)">
    <path d="M245 480 L250 345 L218 285 L192 240" stroke-width="20"/>
    <path d="M192 240 L162 198" stroke-width="16"/>
    <path d="M192 240 L215 195" stroke-width="16"/>
    <path d="M162 198 L138 158" stroke-width="13"/>
    <path d="M162 198 L180 152" stroke-width="13"/>
    <path d="M250 400 L298 342 L335 292" stroke-width="18"/>
    <path d="M335 292 L365 250" stroke-width="15"/>
    <path d="M335 292 L315 248" stroke-width="15"/>
    <path d="M250 345 L265 282 L272 228" stroke-width="17"/>
    <path d="M272 228 L255 182" stroke-width="13"/>
    <path d="M272 228 L298 185" stroke-width="13"/>
  </g>

  <!-- Foreground (main) — full opacity, largest -->
  <g filter="url(#metaball)" stroke="oklch(0.704 0.140 181)" stroke-linecap="round" stroke-linejoin="round" transform="translate(58,38) scale(0.72)">
    <path d="M240 480 L235 310 L190 240 L150 180" stroke-width="26"/>
    <path d="M190 240 L160 265 L125 250" stroke-width="18"/>
    <path d="M150 180 L110 130 L80 80" stroke-width="20"/>
    <path d="M110 130 L85 148" stroke-width="14"/>
    <path d="M150 180 L175 120" stroke-width="18"/>
    <path d="M175 120 L155 68" stroke-width="16"/>
    <path d="M175 120 L208 72" stroke-width="16"/>
    <path d="M235 360 L300 290 L355 230" stroke-width="22"/>
    <path d="M300 290 L330 308" stroke-width="16"/>
    <path d="M355 230 L395 178" stroke-width="18"/>
    <path d="M395 178 L428 135" stroke-width="16"/>
    <path d="M395 178 L372 128" stroke-width="16"/>
    <path d="M355 230 L332 172" stroke-width="16"/>
    <path d="M235 310 L252 228 L262 158" stroke-width="20"/>
    <path d="M252 228 L228 182" stroke-width="16"/>
    <path d="M262 158 L242 98" stroke-width="14"/>
    <path d="M262 158 L298 105" stroke-width="14"/>
    <path d="M235 400 L198 368 L172 332" stroke-width="14"/>
  </g>

  <!-- Foreground accent (right small) — opacity 0.7 -->
  <g filter="url(#metaball)" stroke="oklch(0.704 0.140 181)" stroke-linecap="round" stroke-linejoin="round" opacity="0.7" transform="translate(320,55) scale(0.52)">
    <path d="M245 480 L250 345 L218 285 L192 240" stroke-width="20"/>
    <path d="M192 240 L162 198" stroke-width="16"/>
    <path d="M192 240 L215 195" stroke-width="16"/>
    <path d="M162 198 L138 158" stroke-width="13"/>
    <path d="M162 198 L180 152" stroke-width="13"/>
    <path d="M250 400 L298 342 L335 292" stroke-width="18"/>
    <path d="M335 292 L365 250" stroke-width="15"/>
    <path d="M335 292 L315 248" stroke-width="15"/>
    <path d="M250 345 L265 282 L272 228" stroke-width="17"/>
    <path d="M272 228 L255 182" stroke-width="13"/>
    <path d="M272 228 L298 185" stroke-width="13"/>
  </g>
</svg>
