<svg xmlns="http://www.w3.org/2000/svg" viewBox="0 0 512 512" width="512" height="512">
  <g fill="#14b8a6">
    <!-- Base rock -->
    <ellipse cx="256" cy="480" rx="90" ry="28"/>
    <!-- Main trunk -->
    <path d="M240 475 Q238 400 236 350 Q234 310 238 280 Q242 250 248 220 L264 220 Q270 250 274 280 Q278 310 276 350 Q274 400 272 475 Z"/>
    <!-- Center-left branch -->
    <path d="M248 220 Q235 190 215 160 Q195 130 170 110 Q150 95 138 80 Q130 68 135 55 Q142 42 158 48 Q170 55 175 72 Q180 90 185 105 Q200 135 220 165 Q238 192 248 220 Z"/>
    <!-- Center-right branch -->
    <path d="M264 220 Q277 190 297 160 Q317 130 342 110 Q362 95 374 80 Q382 68 377 55 Q370 42 354 48 Q342 55 337 72 Q332 90 327 105 Q312 135 292 165 Q274 192 264 220 Z"/>
    <!-- Left-tip bud -->
    <circle cx="146" cy="52" r="18"/>
    <!-- Right-tip bud -->
    <circle cx="366" cy="52" r="18"/>
    <!-- Left mid branch -->
    <path d="M238 320 Q220 300 195 280 Q170 260 145 250 Q125 242 110 238 Q98 236 92 245 Q88 256 98 264 Q110 270 125 272 Q150 278 175 295 Q200 310 225 330 Z"/>
    <!-- Left mid bud -->
    <circle cx="92" cy="252" r="16"/>
    <!-- Right mid branch -->
    <path d="M274 320 Q292 300 317 280 Q342 260 367 250 Q387 242 402 238 Q414 236 420 245 Q424 256 414 264 Q402 270 387 272 Q362 278 337 295 Q312 310 287 330 Z"/>
    <!-- Right mid bud -->
    <circle cx="420" cy="252" r="16"/>
    <!-- Small left upper sub-branch -->
    <path d="M195 160 Q178 145 160 138 Q145 132 132 128 Q122 126 118 134 Q116 143 126 148 Q138 152 150 155 Q168 162 185 172 Z"/>
    <circle cx="120" cy="136" r="12"/>
    <!-- Small right upper sub-branch -->
    <path d="M317 160 Q334 145 352 138 Q367 132 380 128 Q390 126 394 134 Q396 143 386 148 Q374 152 362 155 Q344 162 327 172 Z"/>
    <circle cx="392" cy="136" r="12"/>
  </g>
</svg>
