<?xml version="1.0" standalone="no"?>
<!DOCTYPE svg PUBLIC "-//W3C//DTD SVG 20010904//EN"
 "http://www.w3.org/TR/2001/REC-SVG-20010904/DTD/svg10.dtd">
<svg version="1.0" xmlns="http://www.w3.org/2000/svg"
 width="1056.000000pt" height="1008.000000pt" viewBox="0 0 1056.000000 1008.000000"
 preserveAspectRatio="xMidYMid meet">
<metadata>
Created by potrace 1.16, written by Peter Selinger 2001-2019
</metadata>
<g transform="translate(0.000000,1008.000000) scale(0.100000,-0.100000)"
fill="#000000" stroke="none">
<path d="M9361 9164 c-59 -25 -169 -122 -212 -187 -23 -34 -146 -168 -273
-297 -236 -240 -461 -480 -781 -835 -331 -367 -820 -868 -931 -953 -23 -18
-110 -68 -194 -113 -168 -89 -304 -174 -335 -209 -34 -38 -26 -103 23 -185 67
-111 120 -318 108 -420 -6 -56 -51 -192 -119 -365 -74 -189 -146 -387 -162
-450 -18 -70 -19 -202 -3 -365 11 -115 10 -123 -12 -198 -13 -44 -48 -120 -80
-175 -32 -53 -79 -147 -104 -208 -26 -62 -63 -130 -82 -152 -64 -76 -207 -122
-374 -122 -109 0 -160 -16 -258 -81 -81 -53 -133 -73 -237 -89 -38 -7 -110
-25 -160 -42 -93 -31 -109 -32 -220 -8 -84 19 -242 -12 -392 -76 -48 -21 -90
-33 -101 -30 -11 4 -33 29 -50 56 -28 45 -35 50 -67 50 -29 0 -44 -8 -79 -43
-66 -67 -76 -113 -50 -244 3 -18 3 -44 0 -58 -6 -25 -58 -65 -83 -65 -25 0
-42 49 -68 200 -15 85 -35 175 -46 200 -12 26 -46 69 -85 105 -59 55 -66 65
-66 99 0 29 7 45 29 66 51 50 514 355 698 460 183 105 283 168 316 201 45 45
5 173 -99 319 -71 100 -191 247 -273 333 -63 66 -79 77 -107 77 -41 0 -39 1
-242 -128 -818 -520 -1994 -1312 -2077 -1398 -31 -32 -68 -87 -93 -137 -40
-81 -42 -89 -50 -213 -4 -73 -14 -144 -22 -164 -28 -66 -119 -127 -156 -103
-9 5 -27 38 -41 73 -30 75 -55 93 -120 87 -78 -8 -129 -65 -117 -131 12 -61
59 -103 141 -125 42 -12 77 -28 87 -41 21 -25 24 -80 6 -98 -31 -31 -156 2
-283 76 -69 41 -87 47 -135 47 -47 -1 -69 -8 -145 -49 -232 -125 -421 -281
-481 -396 -36 -70 -38 -146 -6 -207 32 -61 28 -92 -18 -154 -55 -73 -55 -89
-4 -194 41 -84 94 -158 129 -181 22 -14 32 -15 64 -5 62 18 81 14 122 -28 64
-63 55 -89 -65 -184 -30 -25 -36 -35 -36 -68 0 -53 20 -90 72 -132 70 -56 124
-79 188 -79 66 0 106 18 166 72 61 56 88 58 193 16 51 -21 106 -36 129 -36 22
0 91 18 152 40 205 73 299 94 440 94 69 0 170 -4 225 -8 58 -5 124 -4 159 2
53 8 60 7 83 -12 28 -25 42 -79 43 -173 0 -49 4 -67 20 -83 27 -27 38 -25 93
10 86 54 121 52 156 -10 31 -55 64 -70 156 -70 114 0 144 -21 179 -127 21 -63
78 -118 133 -130 70 -14 165 -8 207 13 60 29 82 65 77 127 -7 97 -5 118 15
136 10 10 101 53 202 96 132 56 190 86 207 107 30 35 30 45 8 109 -17 47 -17
49 4 91 11 24 53 86 92 140 39 53 74 109 77 125 3 17 -3 59 -16 101 -25 83
-18 121 26 141 56 25 91 4 118 -72 32 -87 86 -91 201 -15 43 29 88 65 99 80
18 25 18 32 6 97 -17 91 -6 108 98 158 61 29 94 54 162 122 47 47 104 112 127
143 68 91 146 130 393 192 345 88 476 147 698 314 150 114 581 362 752 432 91
38 138 72 156 117 13 31 13 47 -7 156 -11 67 -23 174 -26 237 -7 155 1 174 96
224 110 57 123 104 68 241 -60 148 -56 230 16 350 39 65 42 75 42 140 0 117
-44 180 -150 215 -103 34 -105 52 -30 325 51 183 80 327 90 435 10 106 38 172
168 397 63 109 136 241 162 293 82 164 128 223 380 480 332 339 446 471 790
915 207 267 386 438 676 648 114 82 169 136 169 167 0 12 -18 31 -47 51 -27
17 -71 56 -99 85 -53 57 -69 62 -123 38z m-7234 -7188 c21 -7 74 -37 117 -65
79 -51 181 -90 240 -92 17 0 40 -4 51 -9 33 -13 -46 -25 -155 -23 -144 2 -341
63 -407 125 -31 29 -29 46 10 63 41 18 94 19 144 1z m-319 -65 c24 -12 50 -39
69 -70 46 -73 95 -105 242 -157 8 -2 11 -7 8 -10 -3 -3 -110 -32 -239 -65
-240 -61 -308 -69 -381 -47 -87 26 -139 115 -117 197 9 34 18 43 63 64 57 28
284 107 305 107 7 0 30 -9 50 -19z"/>
</g>
</svg>
