<?xml version="1.0" standalone="no"?>
<!DOCTYPE svg PUBLIC "-//W3C//DTD SVG 20010904//EN"
 "http://www.w3.org/TR/2001/REC-SVG-20010904/DTD/svg10.dtd">
<svg version="1.0" xmlns="http://www.w3.org/2000/svg"
 width="800.000000pt" height="514.000000pt" viewBox="0 0 800.000000 514.000000"
 preserveAspectRatio="xMidYMid meet">
<metadata>
Created by potrace 1.16, written by Peter Selinger 2001-2019
</metadata>
<g transform="translate(0.000000,514.000000) scale(0.100000,-0.100000)"
fill="#000000" stroke="none">
<path d="M4115 5019 c-260 -45 -549 -184 -862 -415 l-62 -45 -73 69 c-90 85
-185 155 -260 193 -88 45 -204 79 -266 79 l-55 0 6 -112 c6 -120 27 -213 72
-318 30 -71 30 -66 -15 -215 -33 -111 -50 -210 -50 -301 0 -99 -5 -96 122 -63
151 38 288 122 423 258 50 50 94 91 99 91 5 0 48 -38 96 -83 98 -95 169 -144
320 -221 371 -189 757 -223 1116 -96 269 95 578 296 724 470 81 98 80 125 -11
231 -158 183 -470 374 -739 452 -172 50 -392 60 -585 26z"/>
<path d="M1391 4049 c-102 -20 -250 -84 -380 -164 l-60 -37 -63 53 c-73 60
-169 109 -215 109 -32 0 -33 -1 -33 -42 0 -22 7 -77 16 -121 15 -74 15 -87 0
-163 -9 -45 -16 -103 -16 -129 l0 -46 38 6 c60 10 153 60 215 115 l57 52 52
-47 c71 -64 172 -122 276 -158 80 -29 98 -31 217 -32 154 0 215 15 350 84 112
58 235 168 235 211 0 39 -76 130 -151 181 -168 114 -368 162 -538 128z"/>
<path d="M6235 3483 c-118 -14 -244 -40 -342 -70 -299 -91 -656 -265 -896
-435 -37 -26 -71 -48 -75 -48 -4 0 -26 18 -47 41 -22 23 -89 83 -148 135 -108
93 -228 165 -361 214 -61 23 -191 50 -242 50 -43 0 -49 -20 -40 -149 9 -128
36 -255 79 -371 19 -52 38 -104 41 -116 4 -13 -11 -70 -38 -147 -57 -158 -78
-271 -80 -417 l-1 -115 60 4 c127 7 317 77 443 163 57 39 282 236 282 248 0 4
10 15 23 23 23 15 26 13 98 -55 159 -152 282 -236 514 -353 193 -98 305 -137
490 -171 261 -48 530 -52 730 -11 39 8 93 18 120 22 80 10 271 78 397 140 252
125 560 349 658 479 80 105 61 181 -82 331 -117 124 -366 317 -436 340 -13 4
-43 20 -65 35 -52 35 -214 108 -330 149 -181 64 -357 91 -572 89 -82 0 -163
-3 -180 -5z"/>
<path d="M2995 3244 c-11 -3 -58 -12 -105 -20 -95 -18 -238 -80 -358 -158
l-73 -47 -60 55 c-68 63 -187 126 -253 133 l-46 6 0 -44 c1 -48 20 -143 42
-202 13 -36 12 -45 -10 -109 -13 -39 -26 -102 -29 -139 l-6 -69 30 0 c77 0
195 62 285 148 l47 45 57 -52 c177 -162 437 -243 670 -209 55 9 116 22 135 31
18 8 56 25 84 37 103 44 253 152 291 210 33 49 27 67 -40 138 -110 117 -265
203 -418 233 -91 17 -194 23 -243 13z"/>
<path d="M2321 2270 c-228 -29 -501 -148 -861 -375 l-35 -22 -45 40 c-186 165
-311 238 -452 263 -46 8 -88 12 -95 9 -33 -12 -8 -211 46 -368 l30 -88 -29
-95 c-40 -127 -62 -251 -58 -321 l3 -58 50 3 c150 9 321 101 482 259 l65 64
62 -60 c100 -99 204 -169 368 -252 406 -204 839 -203 1251 3 204 102 423 272
467 363 l22 46 -26 52 c-24 50 -100 129 -218 228 -162 135 -411 254 -628 299
-75 15 -308 21 -399 10z"/>
<path d="M4905 1660 c-96 -21 -258 -99 -327 -158 -16 -13 -22 -10 -68 31 -58
53 -117 83 -177 93 l-43 7 0 -39 c1 -43 11 -92 31 -141 11 -28 11 -37 -4 -67
-9 -20 -19 -65 -23 -101 l-7 -65 35 0 c47 0 144 50 192 99 l39 40 66 -53 c90
-71 109 -82 193 -110 156 -53 312 -41 464 35 85 41 193 127 207 162 20 53
-128 180 -280 239 -81 31 -223 45 -298 28z"/>
<path d="M3571 875 c-79 -18 -176 -62 -263 -121 l-66 -45 -63 50 c-61 50 -148
91 -191 91 -19 0 -20 -4 -15 -58 3 -31 13 -77 22 -101 14 -40 14 -48 0 -85 -9
-23 -17 -68 -18 -101 -2 -55 0 -60 18 -57 63 8 110 30 174 78 l72 55 61 -51
c185 -155 428 -183 651 -74 112 54 217 142 217 181 0 22 -108 124 -173 162
-135 79 -290 107 -426 76z"/>
</g>
</svg>
