<?xml version="1.0" encoding="UTF-8"?>
<svg xmlns="http://www.w3.org/2000/svg" viewBox="0 0 1200 500" width="1200" height="500">
  <defs>
    <radialGradient id="sunGlow" cx="50%" cy="65%" r="35%">
      <stop offset="0%" stop-color="#dc2626" stop-opacity="0.6"/><stop offset="25%" stop-color="#ea580c" stop-opacity="0.6"/><stop offset="45%" stop-color="#eab308" stop-opacity="0.6"/><stop offset="70%" stop-color="#0d9488" stop-opacity="0.3"/><stop offset="100%" stop-color="#0e7490" stop-opacity="0.3"/>
      <stop offset="100%" stop-color="#000" stop-opacity="0"/>
    </radialGradient>
    <linearGradient id="waterGrad" x1="0" y1="0" x2="0" y2="1">
      <stop offset="0%" stop-color="#5c2408" stop-opacity="0.5"/>
      <stop offset="60%" stop-color="#060810" stop-opacity="0.3"/>
      <stop offset="100%" stop-color="#000" stop-opacity="0"/>
    </linearGradient>
  </defs>

  <!-- Background -->
  <rect width="1200" height="500" fill="#0a0a0a"/>

  <!-- Sunset glow -->
  <ellipse cx="600.0" cy="325.0" rx="500.0" ry="300.0" fill="url(#sunGlow)"/>

  <!-- Water surface -->
  <rect x="0" y="325" width="1200" height="175" fill="url(#waterGrad)"/>

  <!-- Mountain silhouette -->
  <path d="M 100.0,325.0 L 240.0,325.0 L 260.0,309.0 L 280.0,295.0 L 300.0,309.0 L 320.0,325.0 L 360.0,325.0 L 380.0,315.0 L 390.0,285.0 L 400.0,245.0 L 410.0,235.0 L 424.0,245.0 L 440.0,269.0 L 460.0,265.0 L 476.0,281.0 L 496.0,277.0 L 516.0,295.0 L 540.0,315.0 L 560.0,325.0 L 640.0,325.0 L 660.0,315.0 L 700.0,289.0 L 740.0,255.0 L 780.0,229.0 L 820.0,221.0 L 860.0,229.0 L 900.0,249.0 L 940.0,275.0 L 980.0,301.0 L 1020.0,315.0 L 1100.0,325.0 L 1100.0,329.0 L 100.0,329.0 Z" fill="#050505"/>

  <!-- Pavilion -->
  <g transform="translate(790,229)">
    <rect x="-8" y="-12" width="2" height="10" fill="#050505"/>
    <rect x="6" y="-12" width="2" height="10" fill="#050505"/>
    <rect x="-10" y="-14" width="20" height="2" fill="#050505"/>
    <rect x="-12" y="-16" width="24" height="1.5" fill="#050505"/>
  </g>

  <!-- BaseLine -->
  <line x1="0" y1="325" x2="1200" y2="325" stroke="#111" stroke-width="1.5"/>

  <!-- fish -->
  <g transform="translate(500,341) scale(0.06)" opacity="0.4">
    <path d="M4115 5019 c-260 -45 -549 -184 -862 -415 l-62 -45 -73 69 c-90 85
-185 155 -260 193 -88 45 -204 79 -266 79 l-55 0 6 -112 c6 -120 27 -213 72
-318 30 -71 30 -66 -15 -215 -33 -111 -50 -210 -50 -301 0 -99 -5 -96 122 -63
151 38 288 122 423 258 50 50 94 91 99 91 5 0 48 -38 96 -83 98 -95 169 -144
320 -221 371 -189 757 -223 1116 -96 269 95 578 296 724 470 81 98 80 125 -11
231 -158 183 -470 374 -739 452 -172 50 -392 60 -585 26z" fill="#22c55e"/>
    <path d="M1391 4049 c-102 -20 -250 -84 -380 -164 l-60 -37 -63 53 c-73 60
-169 109 -215 109 -32 0 -33 -1 -33 -42 0 -22 7 -77 16 -121 15 -74 15 -87 0
-163 -9 -45 -16 -103 -16 -129 l0 -46 38 6 c60 10 153 60 215 115 l57 52 52
-47 c71 -64 172 -122 276 -158 80 -29 98 -31 217 -32 154 0 215 15 350 84 112
58 235 168 235 211 0 39 -76 130 -151 181 -168 114 -368 162 -538 128z" fill="#22c55e"/>
    <path d="M6235 3483 c-118 -14 -244 -40 -342 -70 -299 -91 -656 -265 -896
-435 -37 -26 -71 -48 -75 -48 -4 0 -26 18 -47 41 -22 23 -89 83 -148 135 -108
93 -228 165 -361 214 -61 23 -191 50 -242 50 -43 0 -49 -20 -40 -149 9 -128
36 -255 79 -371 19 -52 38 -104 41 -116 4 -13 -11 -70 -38 -147 -57 -158 -78
-271 -80 -417 l-1 -115 60 4 c127 7 317 77 443 163 57 39 282 236 282 248 0 4
10 15 23 23 23 15 26 13 98 -55 159 -152 282 -236 514 -353 193 -98 305 -137
490 -171 261 -48 530 -52 730 -11 39 8 93 18 120 22 80 10 271 78 397 140 252
125 560 349 658 479 80 105 61 181 -82 331 -117 124 -366 317 -436 340 -13 4
-43 20 -65 35 -52 35 -214 108 -330 149 -181 64 -357 91 -572 89 -82 0 -163
-3 -180 -5z" fill="#22c55e"/>
    <path d="M2995 3244 c-11 -3 -58 -12 -105 -20 -95 -18 -238 -80 -358 -158
l-73 -47 -60 55 c-68 63 -187 126 -253 133 l-46 6 0 -44 c1 -48 20 -143 42
-202 13 -36 12 -45 -10 -109 -13 -39 -26 -102 -29 -139 l-6 -69 30 0 c77 0
195 62 285 148 l47 45 57 -52 c177 -162 437 -243 670 -209 55 9 116 22 135 31
18 8 56 25 84 37 103 44 253 152 291 210 33 49 27 67 -40 138 -110 117 -265
203 -418 233 -91 17 -194 23 -243 13z" fill="#22c55e"/>
    <path d="M2321 2270 c-228 -29 -501 -148 -861 -375 l-35 -22 -45 40 c-186 165
-311 238 -452 263 -46 8 -88 12 -95 9 -33 -12 -8 -211 46 -368 l30 -88 -29
-95 c-40 -127 -62 -251 -58 -321 l3 -58 50 3 c150 9 321 101 482 259 l65 64
62 -60 c100 -99 204 -169 368 -252 406 -204 839 -203 1251 3 204 102 423 272
467 363 l22 46 -26 52 c-24 50 -100 129 -218 228 -162 135 -411 254 -628 299
-75 15 -308 21 -399 10z" fill="#22c55e"/>
    <path d="M4905 1660 c-96 -21 -258 -99 -327 -158 -16 -13 -22 -10 -68 31 -58
53 -117 83 -177 93 l-43 7 0 -39 c1 -43 11 -92 31 -141 11 -28 11 -37 -4 -67
-9 -20 -19 -65 -23 -101 l-7 -65 35 0 c47 0 144 50 192 99 l39 40 66 -53 c90
-71 109 -82 193 -110 156 -53 312 -41 464 35 85 41 193 127 207 162 20 53
-128 180 -280 239 -81 31 -223 45 -298 28z" fill="#22c55e"/>
    <path d="M3571 875 c-79 -18 -176 -62 -263 -121 l-66 -45 -63 50 c-61 50 -148
91 -191 91 -19 0 -20 -4 -15 -58 3 -31 13 -77 22 -101 14 -40 14 -48 0 -85 -9
-23 -17 -68 -18 -101 -2 -55 0 -60 18 -57 63 8 110 30 174 78 l72 55 61 -51
c185 -155 428 -183 651 -74 112 54 217 142 217 181 0 22 -108 124 -173 162
-135 79 -290 107 -426 76z" fill="#22c55e"/>
  </g>

  <!-- jellyfish -->
  <g transform="translate(400,349) scale(0.05)" opacity="0.4">
    <path d="M2455 5609 c-174 -31 -176 -31 -325 -79 -406 -132 -815 -460 -1080
-866 -83 -127 -203 -377 -231 -479 -39 -146 -51 -205 -64 -299 -8 -61 -15
-130 -15 -155 0 -57 27 -117 71 -157 75 -68 155 -99 384 -148 71 -15 74 -22
56 -131 -31 -186 -70 -315 -124 -415 -68 -123 -191 -236 -302 -275 -60 -21
-193 -45 -253 -45 -144 0 -216 -179 -116 -290 49 -54 86 -64 214 -57 239 14
433 99 596 261 186 187 292 437 344 819 l12 87 39 0 39 0 0 -102 c0 -89 -15
-257 -35 -393 -17 -112 -79 -348 -114 -430 -36 -83 -47 -107 -72 -160 -48 -99
-128 -227 -183 -294 -141 -169 -246 -265 -473 -428 -42 -30 -63 -75 -63 -136
0 -98 77 -177 173 -177 40 0 92 14 107 30 3 3 32 23 64 45 33 22 64 44 70 50
6 5 27 22 48 37 20 15 42 33 50 40 7 7 42 40 78 72 412 375 644 896 700 1571
6 72 12 159 13 195 l2 65 49 3 c27 2 60 1 73 -3 24 -6 24 -7 18 -108 -17 -316
-55 -667 -105 -987 -12 -75 -40 -226 -60 -325 -29 -141 -107 -432 -139 -520
-91 -245 -172 -410 -256 -521 -30 -39 -82 -96 -116 -125 -105 -90 -117 -104
-129 -149 -32 -118 52 -230 170 -230 51 0 87 18 169 84 165 133 328 383 451
696 62 158 152 463 189 645 29 138 42 207 51 258 52 301 79 499 100 752 6 72
15 171 21 222 5 50 9 132 9 181 0 50 3 97 6 106 5 13 25 16 114 16 l108 0 5
-26 c2 -14 5 -71 6 -127 1 -56 4 -111 6 -122 3 -11 9 -81 15 -155 18 -242 63
-603 99 -800 56 -301 84 -425 142 -627 5 -18 13 -48 18 -65 20 -73 67 -205 96
-273 7 -16 21 -50 31 -75 28 -73 127 -261 174 -331 105 -156 237 -291 332
-340 55 -28 115 -25 170 10 26 17 54 43 62 58 38 75 28 160 -26 210 -110 101
-200 196 -236 250 -96 141 -191 360 -262 603 -12 41 -26 86 -30 100 -7 22 -32
124 -60 245 -31 132 -81 417 -100 565 -6 47 -15 114 -20 150 -20 149 -47 452
-55 626 -5 107 -4 122 10 128 28 10 110 7 123 -6 8 -8 12 -46 12 -107 0 -262
75 -664 170 -911 11 -30 26 -68 32 -85 23 -62 126 -254 182 -341 139 -213 337
-414 571 -580 96 -68 110 -74 168 -74 99 0 177 77 177 175 0 72 -32 119 -120
178 -191 128 -369 303 -490 481 -89 131 -190 364 -241 556 -52 195 -88 454
-89 628 l0 102 38 0 39 0 12 -102 c7 -57 17 -119 21 -138 5 -19 14 -57 21 -85
13 -57 28 -111 39 -140 5 -11 14 -36 21 -55 87 -242 279 -466 479 -557 118
-53 222 -80 352 -89 120 -9 159 -1 205 39 61 54 79 129 48 204 -28 66 -78 103
-141 103 -113 0 -273 41 -349 89 -131 83 -241 240 -286 409 -5 17 -14 49 -19
70 -17 60 -40 204 -40 247 l0 41 73 13 c69 12 136 29 202 49 65 20 154 73 188
112 52 62 62 109 48 238 -20 179 -62 354 -118 482 -165 383 -378 658 -723 934
-71 56 -215 142 -341 204 -158 76 -319 127 -507 157 -96 16 -385 18 -467 4z" fill="#a855f7"/>
  </g>

  <!-- turtle -->
  <g transform="translate(720,337) scale(0.05)" opacity="0.4">
    <path d="M6800 8879 c-135 -15 -278 -66 -388 -141 -72 -48 -231 -196 -320
-298 -131 -148 -237 -330 -283 -485 -26 -88 -37 -291 -20 -391 l12 -69 247
-128 c479 -247 587 -303 629 -326 l42 -24 71 42 c178 106 394 299 487 436 147
217 197 426 173 726 -30 379 -85 496 -280 594 -115 58 -235 79 -370 64z" fill="#f59e0b"/>
    <path d="M3580 8200 c-342 -48 -640 -181 -939 -420 -323 -258 -722 -724 -869
-1016 -72 -142 -100 -227 -221 -659 -17 -60 -65 -211 -106 -335 -116 -341
-135 -443 -96 -491 112 -139 706 405 1980 1815 324 358 458 464 601 473 69 5
94 -5 241 -90 103 -60 210 -36 309 69 86 90 122 216 101 349 -12 83 -16 86
-156 155 -206 100 -407 150 -635 155 -80 2 -174 0 -210 -5z" fill="#f59e0b"/>
    <path d="M4898 7476 c-88 -32 -188 -113 -188 -154 0 -15 114 -190 143 -219 8
-8 70 -17 167 -24 85 -5 236 -16 335 -23 99 -7 182 -11 184 -10 9 7 51 212 51
251 0 52 -36 99 -88 112 -41 11 -520 81 -549 81 -10 -1 -34 -7 -55 -14z" fill="#f59e0b"/>
    <path d="M4404 7430 c-35 -14 -376 -200 -405 -221 -45 -32 -72 -101 -73 -185
0 -59 3 -79 20 -101 51 -69 141 -97 223 -71 62 20 370 226 409 274 56 67 62
179 14 243 -45 61 -124 87 -188 61z" fill="#f59e0b"/>
    <path d="M5806 7285 c-149 -53 -207 -240 -101 -323 16 -12 119 -68 229 -123
200 -101 202 -101 255 -94 63 9 111 46 146 114 76 151 58 206 -101 326 -93 71
-139 91 -237 104 -101 14 -143 13 -191 -4z" fill="#f59e0b"/>
    <path d="M4880 6958 c-124 -11 -459 -86 -520 -116 -79 -40 -115 -94 -115 -175
l0 -62 188 -285 c104 -157 200 -298 215 -313 73 -78 139 -79 322 -8 234 92
348 165 366 236 7 29 -74 568 -97 643 -16 50 -65 70 -199 80 -47 4 -119 4
-160 0z" fill="#f59e0b"/>
    <path d="M3667 6944 c-29 -16 -362 -427 -391 -482 -22 -42 -20 -110 3 -148 59
-97 211 -147 293 -96 36 22 336 366 375 430 26 42 29 97 9 145 -17 41 -100
133 -137 152 -36 19 -116 18 -152 -1z" fill="#f59e0b"/>
    <path d="M6486 6885 c-51 -18 -58 -29 -53 -96 6 -100 118 -297 277 -484 109
-128 213 -194 286 -180 45 8 108 57 127 98 95 199 -230 620 -514 666 -78 13
-75 13 -123 -4z" fill="#f59e0b"/>
    <path d="M5672 6875 c-67 -19 -101 -36 -131 -69 -20 -21 -31 -63 -68 -253 -56
-290 -61 -344 -39 -378 12 -18 104 -69 310 -172 317 -157 319 -158 430 -132
92 21 134 53 261 198 73 83 125 153 133 176 24 72 11 84 -338 328 -503 350
-463 328 -558 302z" fill="#f59e0b"/>
    <path d="M3953 6508 c-55 -32 -304 -292 -332 -345 -36 -71 -161 -433 -161
-465 0 -66 25 -87 226 -193 635 -332 640 -335 683 -335 77 0 297 91 365 150
44 39 62 87 86 227 23 131 25 218 7 251 -6 12 -79 84 -162 159 -82 74 -239
217 -349 317 -109 99 -215 194 -235 209 -43 32 -97 43 -128 25z" fill="#f59e0b"/>
    <path d="M7798 6303 c-67 -34 -167 -133 -197 -197 -46 -101 -49 -220 -5 -311
21 -46 27 -50 145 -99 126 -54 164 -83 198 -155 25 -54 26 -63 26 -226 -1
-133 -5 -194 -22 -280 -195 -990 -280 -1488 -359 -2095 -30 -235 -43 -602 -25
-692 16 -75 42 -108 87 -108 52 0 136 92 288 315 134 196 179 260 311 430 189
244 249 333 318 472 96 191 164 404 212 658 13 72 29 154 35 184 29 153 52
387 53 536 0 313 -53 574 -170 824 -151 326 -462 621 -792 751 l-49 19 -54
-26z" fill="#f59e0b"/>
    <path d="M3072 5923 c-114 -267 -130 -310 -117 -319 23 -17 285 -137 290 -132
2 2 31 96 64 208 34 113 79 265 101 339 22 74 37 138 33 141 -5 4 -53 19 -108
34 -55 15 -107 29 -115 31 -12 4 -46 -64 -148 -302z" fill="#f59e0b"/>
    <path d="M7081 6141 c-11 -11 -21 -33 -21 -48 1 -91 79 -285 175 -435 104
-161 181 -208 262 -158 45 27 56 54 49 114 -9 64 -78 271 -117 348 -60 118
-147 182 -265 194 -54 6 -64 4 -83 -15z" fill="#f59e0b"/>
    <path d="M6646 5970 c-91 -53 -401 -256 -448 -293 -42 -33 -109 -125 -138
-189 -11 -24 -20 -63 -20 -89 0 -126 179 -264 430 -332 183 -49 595 -147 617
-147 37 0 53 11 74 52 32 63 45 181 32 296 -10 88 -20 121 -107 335 -52 130
-102 250 -110 266 -44 83 -131 141 -216 141 -35 0 -61 -9 -114 -40z" fill="#f59e0b"/>
    <path d="M5278 5956 c-20 -8 -83 -38 -140 -67 -224 -115 -269 -216 -218 -481
23 -119 57 -194 107 -238 20 -18 128 -78 241 -133 l204 -102 77 0 c71 0 82 3
186 53 174 85 235 140 266 244 27 89 -7 350 -57 436 -36 60 -82 91 -303 201
-179 88 -199 96 -260 98 -39 2 -81 -3 -103 -11z" fill="#f59e0b"/>
    <path d="M2934 5363 c-14 -32 -47 -112 -73 -178 l-46 -120 1 -140 c0 -77 4
-162 8 -189 l8 -49 175 7 c96 3 179 9 184 12 5 3 9 33 9 67 0 34 4 123 9 197
6 74 13 198 16 276 l7 140 -99 12 c-54 7 -115 15 -136 18 l-37 6 -26 -59z" fill="#f59e0b"/>
    <path d="M7291 5353 c-19 -16 -24 -39 -41 -213 -25 -252 -25 -306 0 -347 64
-105 239 -89 287 26 18 42 47 369 38 420 -11 58 -49 86 -154 110 -111 25 -104
25 -130 4z" fill="#f59e0b"/>
    <path d="M3435 5276 c-58 -36 -92 -98 -126 -233 -39 -157 -40 -223 -2 -276 16
-23 48 -51 73 -64 40 -20 264 -68 604 -129 88 -16 131 -9 186 28 96 66 108
257 21 345 -32 33 -349 220 -545 322 -76 40 -152 43 -211 7z" fill="#f59e0b"/>
    <path d="M5928 5065 c-69 -25 -102 -61 -179 -192 -93 -158 -99 -172 -99 -232
0 -81 27 -139 94 -206 50 -50 276 -228 584 -461 118 -89 248 -98 363 -25 40
25 61 54 161 222 149 250 159 272 165 338 10 115 -64 230 -183 286 -31 15
-140 58 -243 97 -102 38 -257 96 -343 129 -170 64 -240 74 -320 44z" fill="#f59e0b"/>
    <path d="M4805 5029 c-153 -23 -307 -100 -363 -181 -94 -137 -58 -346 89 -512
57 -64 188 -162 264 -196 326 -149 680 -100 782 108 24 49 28 68 27 142 -1
104 -26 184 -91 284 -74 117 -202 235 -318 293 -108 55 -270 81 -390 62z" fill="#f59e0b"/>
    <path d="M2440 4701 c-155 -59 -346 -156 -465 -235 -111 -74 -277 -234 -343
-330 -254 -368 -256 -819 -6 -1318 90 -179 102 -190 169 -148 59 37 105 146
190 450 14 52 37 114 50 137 31 51 114 126 308 273 83 63 159 129 169 145 27
47 37 140 53 472 16 333 19 603 8 602 -5 0 -64 -22 -133 -48z" fill="#f59e0b"/>
    <path d="M2874 4580 c-134 -31 -197 -241 -149 -492 31 -166 82 -275 158 -344
105 -94 186 -57 249 112 19 51 22 78 22 204 -1 129 -4 158 -32 262 -40 155
-73 216 -132 246 -46 23 -64 25 -116 12z" fill="#f59e0b"/>
    <path d="M7250 4551 c-118 -36 -189 -112 -285 -304 -85 -170 -92 -203 -47
-243 52 -48 208 -144 234 -144 14 0 38 10 52 21 35 27 286 527 286 569 0 79
-131 134 -240 101z" fill="#f59e0b"/>
    <path d="M3625 4424 c-171 -7 -323 -17 -338 -23 -15 -6 -36 -25 -48 -43 -19
-31 -20 -43 -14 -193 4 -88 13 -189 21 -224 26 -113 106 -250 139 -237 41 15
702 512 721 541 41 63 19 155 -42 181 -37 16 -19 16 -439 -2z" fill="#f59e0b"/>
    <path d="M5695 4197 c-22 -13 -87 -57 -145 -98 -58 -41 -136 -96 -173 -123
-37 -26 -79 -64 -92 -84 -36 -55 -57 -154 -53 -243 4 -89 1 -85 236 -349 162
-181 194 -204 278 -204 60 0 86 15 205 121 41 38 130 117 196 176 97 87 126
119 143 160 27 63 30 149 6 195 -15 29 -312 359 -377 419 -61 55 -157 68 -224
30z" fill="#f59e0b"/>
    <path d="M4238 4170 c-53 -16 -87 -50 -125 -127 -37 -74 -38 -81 -38 -182 0
-129 21 -194 94 -291 55 -72 117 -123 210 -169 156 -79 341 -82 489 -7 146 74
249 248 213 359 -25 75 -100 127 -390 271 -303 151 -368 172 -453 146z" fill="#f59e0b"/>
    <path d="M6712 3822 c-171 -68 -284 -325 -201 -459 61 -98 216 -79 334 41 80
81 155 225 155 296 0 89 -71 141 -191 139 -30 0 -73 -8 -97 -17z" fill="#f59e0b"/>
    <path d="M3719 3761 c-14 -4 -36 -14 -50 -21 -42 -23 -369 -251 -369 -258 0
-6 181 -254 299 -411 l18 -25 55 45 c104 83 293 259 316 293 31 46 48 139 33
192 -16 60 -68 131 -115 159 -46 27 -142 41 -187 26z" fill="#f59e0b"/>
    <path d="M2985 3643 c-110 -43 -125 -55 -125 -103 0 -39 162 -549 187 -586 8
-13 35 -33 60 -45 44 -21 47 -22 99 -5 80 25 138 53 158 75 26 28 23 85 -13
232 -35 148 -53 191 -134 328 -57 95 -101 142 -132 140 -5 0 -50 -16 -100 -36z" fill="#f59e0b"/>
    <path d="M5127 3406 c-91 -47 -191 -119 -222 -160 -34 -44 -32 -92 5 -166 35
-69 144 -202 258 -314 l81 -79 58 39 c93 63 147 122 164 179 18 62 15 151 -6
213 -24 73 -138 273 -166 295 -48 35 -96 33 -172 -7z" fill="#f59e0b"/>
    <path d="M6162 3240 c-87 -24 -217 -90 -277 -141 -69 -57 -141 -144 -173 -209
-21 -42 -27 -70 -27 -118 0 -59 2 -66 32 -92 112 -100 388 1 591 215 155 163
189 316 80 354 -46 16 -154 12 -226 -9z" fill="#f59e0b"/>
    <path d="M4055 3216 c-93 -19 -92 -18 -197 -181 -177 -275 -191 -300 -195
-339 -6 -52 13 -77 106 -139 193 -130 292 -163 345 -114 31 28 232 422 242
473 16 85 -50 270 -106 299 -34 18 -111 18 -195 1z" fill="#f59e0b"/>
    <path d="M4551 3035 c-54 -17 -98 -58 -112 -105 -25 -88 -66 -372 -59 -406 16
-70 98 -127 185 -127 62 0 321 73 380 107 52 31 79 83 72 136 -5 40 -117 288
-150 333 -12 15 -43 38 -71 52 -41 20 -64 25 -125 24 -42 0 -96 -6 -120 -14z" fill="#f59e0b"/>
    <path d="M3293 2870 c-17 -10 -37 -28 -43 -39 -19 -37 -30 -121 -31 -253 -1
-115 1 -133 18 -157 26 -35 73 -50 159 -50 102 -1 117 19 138 191 18 150 15
189 -20 239 -59 85 -149 113 -221 69z" fill="#f59e0b"/>
    <path d="M6430 2771 c-19 -15 -109 -86 -200 -157 -349 -273 -524 -424 -565
-488 -18 -28 -21 -54 -26 -306 -8 -353 -6 -347 -164 -545 -167 -210 -226 -339
-181 -400 11 -16 22 -17 82 -12 38 3 116 15 173 27 490 99 847 368 988 740
111 296 99 672 -35 1088 -14 45 -29 82 -32 82 -3 -1 -21 -13 -40 -29z" fill="#f59e0b"/>
    <path d="M5280 2635 c-341 -229 -357 -241 -366 -290 -10 -58 13 -114 69 -167
67 -62 128 -92 169 -84 17 3 72 31 122 62 50 31 164 101 253 156 89 54 174
113 189 131 23 27 26 38 22 83 -4 42 -14 66 -53 123 -68 100 -85 114 -147 119
l-53 4 -205 -137z" fill="#f59e0b"/>
    <path d="M3615 2389 c-65 -18 -101 -77 -111 -177 -4 -46 -1 -63 15 -89 37 -59
35 -59 416 -149 194 -46 224 -48 270 -18 40 26 57 70 62 158 5 89 -10 128 -62
162 -20 13 -529 126 -554 123 -3 0 -20 -5 -36 -10z" fill="#f59e0b"/>
    <path d="M4580 2277 c-111 -26 -215 -103 -256 -191 -16 -32 -16 -35 5 -64 27
-39 121 -101 180 -119 136 -43 335 51 372 176 21 69 -16 153 -83 187 -40 21
-151 26 -218 11z" fill="#f59e0b"/>
    <path d="M3416 2003 c-68 -180 -113 -425 -102 -560 10 -113 30 -176 67 -207
67 -57 115 -29 336 198 98 100 220 228 270 283 l93 100 -108 6 c-180 9 -333
71 -453 185 -37 34 -69 62 -72 62 -3 0 -17 -30 -31 -67z" fill="#f59e0b"/>
  </g>

  <!-- whale -->
  <g transform="translate(600,355) scale(0.1)" opacity="0.4">
    <path d="M918 6982 c-73 -45 -96 -217 -72 -538 8 -104 18 -216 24 -249 5 -33
16 -100 24 -150 7 -49 21 -128 30 -175 14 -79 20 -108 45 -222 13 -58 60 -237
70 -268 5 -14 17 -52 26 -85 9 -33 21 -69 25 -80 5 -11 28 -76 50 -145 22 -69
45 -134 50 -145 5 -11 23 -56 40 -100 17 -44 37 -93 45 -110 7 -16 28 -61 45
-100 161 -356 417 -792 599 -1019 23 -29 28 -42 21 -56 -24 -46 -64 -341 -91
-685 -22 -279 9 -787 60 -1000 6 -22 17 -71 26 -110 27 -116 48 -179 86 -260
41 -88 76 -117 142 -123 132 -11 211 82 347 403 4 11 15 36 24 57 9 20 16 41
16 47 0 6 4 19 9 29 12 24 23 51 77 182 25 63 54 133 64 155 10 22 34 81 55
130 20 50 57 132 81 183 24 52 44 97 44 100 0 4 7 15 15 26 13 18 15 18 42 -2
50 -35 208 -117 378 -197 165 -78 251 -108 588 -207 46 -14 42 -9 111 -141
151 -291 338 -540 611 -812 110 -110 241 -232 290 -270 50 -38 95 -73 100 -78
37 -28 128 -87 135 -87 6 0 10 -4 10 -9 0 -8 181 -101 260 -134 156 -64 266
-69 305 -14 29 42 14 246 -35 462 -5 22 -16 72 -24 110 -8 39 -19 91 -25 117
-15 68 -81 338 -91 373 -5 17 -23 89 -40 160 -17 72 -35 146 -40 165 -5 19
-12 46 -16 59 -7 28 8 41 48 41 15 0 47 5 70 10 24 6 86 19 138 30 155 32 333
78 385 99 11 5 49 17 85 27 36 9 70 21 75 25 6 4 26 10 45 14 32 7 41 11 90
35 11 5 25 10 31 10 6 0 26 7 45 15 30 13 67 29 129 55 51 21 94 39 145 61 63
27 395 194 455 229 90 52 425 222 530 270 114 51 127 57 182 74 59 18 227 22
285 6 48 -14 192 -27 460 -42 273 -15 572 3 678 41 144 52 184 70 242 108 137
90 228 247 262 452 l6 33 -37 -7 c-77 -14 -238 -6 -303 15 -14 4 -52 15 -85
25 -33 9 -68 20 -77 26 -10 5 -24 9 -33 9 -8 0 -31 7 -52 16 -122 53 -285 108
-424 144 -46 11 -102 26 -124 33 -25 7 -119 12 -244 13 l-204 1 -20 44 c-156
342 -411 759 -464 759 -16 0 -129 -125 -171 -190 -94 -146 -131 -263 -138
-435 -13 -306 -69 -407 -264 -468 -111 -36 -337 -25 -505 24 -86 25 -253 83
-303 105 -29 13 -54 24 -56 24 -14 0 -341 159 -431 210 -33 18 -67 37 -75 41
-8 4 -74 44 -147 88 -73 45 -135 81 -139 81 -4 0 -22 11 -40 25 -18 14 -36 25
-41 25 -4 0 -26 14 -48 31 l-40 30 3 94 c4 92 3 94 -31 147 -55 87 -124 135
-312 217 -27 12 -68 31 -90 41 -22 10 -85 33 -140 51 -55 18 -109 35 -120 39
-11 4 -74 27 -140 50 -103 36 -325 143 -459 219 -72 41 -510 314 -581 361 -89
60 -313 200 -320 200 -3 0 -22 11 -43 23 -47 30 -217 120 -497 262 -215 109
-374 192 -485 252 -30 17 -100 54 -155 83 -55 28 -104 56 -110 60 -5 4 -32 20
-60 35 -132 73 -308 190 -378 252 -168 146 -252 183 -414 183 -75 0 -105 -5
-125 -18z m237 -857 c44 -68 83 -125 88 -125 4 0 7 -4 7 -9 0 -17 374 -529
509 -696 247 -306 550 -620 781 -810 25 -20 67 -55 94 -78 27 -23 56 -46 65
-51 9 -5 18 -12 21 -16 18 -22 480 -340 494 -340 3 0 64 -36 135 -80 127 -79
128 -80 134 -122 9 -63 35 -226 46 -278 5 -25 14 -72 21 -104 32 -163 159
-603 199 -691 5 -11 17 -42 26 -70 20 -59 27 -78 48 -125 9 -19 12 -39 7 -43
-7 -8 -98 18 -185 52 -11 5 -58 23 -105 41 -129 49 -215 88 -325 150 -33 19
-73 41 -90 49 -73 37 -384 244 -405 270 -3 3 -30 26 -60 51 -130 106 -323 295
-439 430 -108 126 -305 394 -341 465 -3 6 -23 37 -44 70 -70 107 -128 210
-232 415 -75 148 -154 316 -154 326 0 3 -7 21 -15 40 -8 19 -22 49 -30 68 -8
19 -15 39 -15 45 0 6 -4 19 -9 29 -20 38 -41 91 -41 104 0 8 -4 18 -8 23 -4 6
-16 35 -26 65 -10 30 -21 64 -26 75 -23 54 -89 290 -116 415 -30 135 -63 305
-74 375 -5 33 -14 89 -19 125 -6 36 -11 68 -11 73 0 23 23 -7 95 -118z m4165
-3021 c57 -16 80 -22 195 -48 156 -36 235 -52 405 -81 110 -19 172 -28 290
-44 181 -24 250 -31 395 -41 196 -13 255 -20 255 -28 0 -8 -139 -75 -295 -143
-55 -23 -104 -47 -110 -51 -5 -4 -15 -8 -23 -8 -8 0 -28 -6 -45 -14 -86 -38
-258 -98 -372 -131 -33 -9 -71 -21 -85 -26 -14 -4 -56 -15 -95 -24 -38 -9 -88
-20 -110 -25 -22 -5 -67 -15 -100 -21 -33 -6 -78 -15 -100 -19 -114 -23 -113
-23 -123 -3 -6 10 -15 43 -21 73 -30 153 -42 209 -51 250 -9 41 -25 114 -50
240 -5 25 -14 63 -19 85 -13 48 -14 75 -3 75 4 0 32 -7 62 -16z" fill="#3b82f6"/>
  </g>

  <!-- diver -->
  <g transform="translate(540,345) scale(0.06)" opacity="0.4">
    <path d="M9361 9164 c-59 -25 -169 -122 -212 -187 -23 -34 -146 -168 -273
-297 -236 -240 -461 -480 -781 -835 -331 -367 -820 -868 -931 -953 -23 -18
-110 -68 -194 -113 -168 -89 -304 -174 -335 -209 -34 -38 -26 -103 23 -185 67
-111 120 -318 108 -420 -6 -56 -51 -192 -119 -365 -74 -189 -146 -387 -162
-450 -18 -70 -19 -202 -3 -365 11 -115 10 -123 -12 -198 -13 -44 -48 -120 -80
-175 -32 -53 -79 -147 -104 -208 -26 -62 -63 -130 -82 -152 -64 -76 -207 -122
-374 -122 -109 0 -160 -16 -258 -81 -81 -53 -133 -73 -237 -89 -38 -7 -110
-25 -160 -42 -93 -31 -109 -32 -220 -8 -84 19 -242 -12 -392 -76 -48 -21 -90
-33 -101 -30 -11 4 -33 29 -50 56 -28 45 -35 50 -67 50 -29 0 -44 -8 -79 -43
-66 -67 -76 -113 -50 -244 3 -18 3 -44 0 -58 -6 -25 -58 -65 -83 -65 -25 0
-42 49 -68 200 -15 85 -35 175 -46 200 -12 26 -46 69 -85 105 -59 55 -66 65
-66 99 0 29 7 45 29 66 51 50 514 355 698 460 183 105 283 168 316 201 45 45
5 173 -99 319 -71 100 -191 247 -273 333 -63 66 -79 77 -107 77 -41 0 -39 1
-242 -128 -818 -520 -1994 -1312 -2077 -1398 -31 -32 -68 -87 -93 -137 -40
-81 -42 -89 -50 -213 -4 -73 -14 -144 -22 -164 -28 -66 -119 -127 -156 -103
-9 5 -27 38 -41 73 -30 75 -55 93 -120 87 -78 -8 -129 -65 -117 -131 12 -61
59 -103 141 -125 42 -12 77 -28 87 -41 21 -25 24 -80 6 -98 -31 -31 -156 2
-283 76 -69 41 -87 47 -135 47 -47 -1 -69 -8 -145 -49 -232 -125 -421 -281
-481 -396 -36 -70 -38 -146 -6 -207 32 -61 28 -92 -18 -154 -55 -73 -55 -89
-4 -194 41 -84 94 -158 129 -181 22 -14 32 -15 64 -5 62 18 81 14 122 -28 64
-63 55 -89 -65 -184 -30 -25 -36 -35 -36 -68 0 -53 20 -90 72 -132 70 -56 124
-79 188 -79 66 0 106 18 166 72 61 56 88 58 193 16 51 -21 106 -36 129 -36 22
0 91 18 152 40 205 73 299 94 440 94 69 0 170 -4 225 -8 58 -5 124 -4 159 2
53 8 60 7 83 -12 28 -25 42 -79 43 -173 0 -49 4 -67 20 -83 27 -27 38 -25 93
10 86 54 121 52 156 -10 31 -55 64 -70 156 -70 114 0 144 -21 179 -127 21 -63
78 -118 133 -130 70 -14 165 -8 207 13 60 29 82 65 77 127 -7 97 -5 118 15
136 10 10 101 53 202 96 132 56 190 86 207 107 30 35 30 45 8 109 -17 47 -17
49 4 91 11 24 53 86 92 140 39 53 74 109 77 125 3 17 -3 59 -16 101 -25 83
-18 121 26 141 56 25 91 4 118 -72 32 -87 86 -91 201 -15 43 29 88 65 99 80
18 25 18 32 6 97 -17 91 -6 108 98 158 61 29 94 54 162 122 47 47 104 112 127
143 68 91 146 130 393 192 345 88 476 147 698 314 150 114 581 362 752 432 91
38 138 72 156 117 13 31 13 47 -7 156 -11 67 -23 174 -26 237 -7 155 1 174 96
224 110 57 123 104 68 241 -60 148 -56 230 16 350 39 65 42 75 42 140 0 117
-44 180 -150 215 -103 34 -105 52 -30 325 51 183 80 327 90 435 10 106 38 172
168 397 63 109 136 241 162 293 82 164 128 223 380 480 332 339 446 471 790
915 207 267 386 438 676 648 114 82 169 136 169 167 0 12 -18 31 -47 51 -27
17 -71 56 -99 85 -53 57 -69 62 -123 38z m-7234 -7188 c21 -7 74 -37 117 -65
79 -51 181 -90 240 -92 17 0 40 -4 51 -9 33 -13 -46 -25 -155 -23 -144 2 -341
63 -407 125 -31 29 -29 46 10 63 41 18 94 19 144 1z m-319 -65 c24 -12 50 -39
69 -70 46 -73 95 -105 242 -157 8 -2 11 -7 8 -10 -3 -3 -110 -32 -239 -65
-240 -61 -308 -69 -381 -47 -87 26 -139 115 -117 197 9 34 18 43 63 64 57 28
284 107 305 107 7 0 30 -9 50 -19z" fill="#e4e4e7"/>
  </g>
</svg>