<?xml version="1.0" standalone="no"?>
<!DOCTYPE svg PUBLIC "-//W3C//DTD SVG 20010904//EN"
 "http://www.w3.org/TR/2001/REC-SVG-20010904/DTD/svg10.dtd">
<svg version="1.0" xmlns="http://www.w3.org/2000/svg"
 width="544.000000pt" height="586.000000pt" viewBox="0 0 544.000000 586.000000"
 preserveAspectRatio="xMidYMid meet">
<metadata>
Created by potrace 1.16, written by Peter Selinger 2001-2019
</metadata>
<g transform="translate(0.000000,586.000000) scale(0.100000,-0.100000)"
fill="#000000" stroke="none">
<path d="M2455 5609 c-174 -31 -176 -31 -325 -79 -406 -132 -815 -460 -1080
-866 -83 -127 -203 -377 -231 -479 -39 -146 -51 -205 -64 -299 -8 -61 -15
-130 -15 -155 0 -57 27 -117 71 -157 75 -68 155 -99 384 -148 71 -15 74 -22
56 -131 -31 -186 -70 -315 -124 -415 -68 -123 -191 -236 -302 -275 -60 -21
-193 -45 -253 -45 -144 0 -216 -179 -116 -290 49 -54 86 -64 214 -57 239 14
433 99 596 261 186 187 292 437 344 819 l12 87 39 0 39 0 0 -102 c0 -89 -15
-257 -35 -393 -17 -112 -79 -348 -114 -430 -36 -83 -47 -107 -72 -160 -48 -99
-128 -227 -183 -294 -141 -169 -246 -265 -473 -428 -42 -30 -63 -75 -63 -136
0 -98 77 -177 173 -177 40 0 92 14 107 30 3 3 32 23 64 45 33 22 64 44 70 50
6 5 27 22 48 37 20 15 42 33 50 40 7 7 42 40 78 72 412 375 644 896 700 1571
6 72 12 159 13 195 l2 65 49 3 c27 2 60 1 73 -3 24 -6 24 -7 18 -108 -17 -316
-55 -667 -105 -987 -12 -75 -40 -226 -60 -325 -29 -141 -107 -432 -139 -520
-91 -245 -172 -410 -256 -521 -30 -39 -82 -96 -116 -125 -105 -90 -117 -104
-129 -149 -32 -118 52 -230 170 -230 51 0 87 18 169 84 165 133 328 383 451
696 62 158 152 463 189 645 29 138 42 207 51 258 52 301 79 499 100 752 6 72
15 171 21 222 5 50 9 132 9 181 0 50 3 97 6 106 5 13 25 16 114 16 l108 0 5
-26 c2 -14 5 -71 6 -127 1 -56 4 -111 6 -122 3 -11 9 -81 15 -155 18 -242 63
-603 99 -800 56 -301 84 -425 142 -627 5 -18 13 -48 18 -65 20 -73 67 -205 96
-273 7 -16 21 -50 31 -75 28 -73 127 -261 174 -331 105 -156 237 -291 332
-340 55 -28 115 -25 170 10 26 17 54 43 62 58 38 75 28 160 -26 210 -110 101
-200 196 -236 250 -96 141 -191 360 -262 603 -12 41 -26 86 -30 100 -7 22 -32
124 -60 245 -31 132 -81 417 -100 565 -6 47 -15 114 -20 150 -20 149 -47 452
-55 626 -5 107 -4 122 10 128 28 10 110 7 123 -6 8 -8 12 -46 12 -107 0 -262
75 -664 170 -911 11 -30 26 -68 32 -85 23 -62 126 -254 182 -341 139 -213 337
-414 571 -580 96 -68 110 -74 168 -74 99 0 177 77 177 175 0 72 -32 119 -120
178 -191 128 -369 303 -490 481 -89 131 -190 364 -241 556 -52 195 -88 454
-89 628 l0 102 38 0 39 0 12 -102 c7 -57 17 -119 21 -138 5 -19 14 -57 21 -85
13 -57 28 -111 39 -140 5 -11 14 -36 21 -55 87 -242 279 -466 479 -557 118
-53 222 -80 352 -89 120 -9 159 -1 205 39 61 54 79 129 48 204 -28 66 -78 103
-141 103 -113 0 -273 41 -349 89 -131 83 -241 240 -286 409 -5 17 -14 49 -19
70 -17 60 -40 204 -40 247 l0 41 73 13 c69 12 136 29 202 49 65 20 154 73 188
112 52 62 62 109 48 238 -20 179 -62 354 -118 482 -165 383 -378 658 -723 934
-71 56 -215 142 -341 204 -158 76 -319 127 -507 157 -96 16 -385 18 -467 4z"/>
</g>
</svg>
