<?xml version="1.0" standalone="no"?>
<!DOCTYPE svg PUBLIC "-//W3C//DTD SVG 20010904//EN"
 "http://www.w3.org/TR/2001/REC-SVG-20010904/DTD/svg10.dtd">
<svg version="1.0" xmlns="http://www.w3.org/2000/svg"
 width="1024.000000pt" height="1024.000000pt" viewBox="0 0 1024.000000 1024.000000"
 preserveAspectRatio="xMidYMid meet">
<metadata>
Created by potrace 1.16, written by Peter Selinger 2001-2019
</metadata>
<g transform="translate(0.000000,1024.000000) scale(0.100000,-0.100000)"
fill="#000000" stroke="none">
<path d="M6800 8879 c-135 -15 -278 -66 -388 -141 -72 -48 -231 -196 -320
-298 -131 -148 -237 -330 -283 -485 -26 -88 -37 -291 -20 -391 l12 -69 247
-128 c479 -247 587 -303 629 -326 l42 -24 71 42 c178 106 394 299 487 436 147
217 197 426 173 726 -30 379 -85 496 -280 594 -115 58 -235 79 -370 64z"/>
<path d="M3580 8200 c-342 -48 -640 -181 -939 -420 -323 -258 -722 -724 -869
-1016 -72 -142 -100 -227 -221 -659 -17 -60 -65 -211 -106 -335 -116 -341
-135 -443 -96 -491 112 -139 706 405 1980 1815 324 358 458 464 601 473 69 5
94 -5 241 -90 103 -60 210 -36 309 69 86 90 122 216 101 349 -12 83 -16 86
-156 155 -206 100 -407 150 -635 155 -80 2 -174 0 -210 -5z"/>
<path d="M4898 7476 c-88 -32 -188 -113 -188 -154 0 -15 114 -190 143 -219 8
-8 70 -17 167 -24 85 -5 236 -16 335 -23 99 -7 182 -11 184 -10 9 7 51 212 51
251 0 52 -36 99 -88 112 -41 11 -520 81 -549 81 -10 -1 -34 -7 -55 -14z"/>
<path d="M4404 7430 c-35 -14 -376 -200 -405 -221 -45 -32 -72 -101 -73 -185
0 -59 3 -79 20 -101 51 -69 141 -97 223 -71 62 20 370 226 409 274 56 67 62
179 14 243 -45 61 -124 87 -188 61z"/>
<path d="M5806 7285 c-149 -53 -207 -240 -101 -323 16 -12 119 -68 229 -123
200 -101 202 -101 255 -94 63 9 111 46 146 114 76 151 58 206 -101 326 -93 71
-139 91 -237 104 -101 14 -143 13 -191 -4z"/>
<path d="M4880 6958 c-124 -11 -459 -86 -520 -116 -79 -40 -115 -94 -115 -175
l0 -62 188 -285 c104 -157 200 -298 215 -313 73 -78 139 -79 322 -8 234 92
348 165 366 236 7 29 -74 568 -97 643 -16 50 -65 70 -199 80 -47 4 -119 4
-160 0z"/>
<path d="M3667 6944 c-29 -16 -362 -427 -391 -482 -22 -42 -20 -110 3 -148 59
-97 211 -147 293 -96 36 22 336 366 375 430 26 42 29 97 9 145 -17 41 -100
133 -137 152 -36 19 -116 18 -152 -1z"/>
<path d="M6486 6885 c-51 -18 -58 -29 -53 -96 6 -100 118 -297 277 -484 109
-128 213 -194 286 -180 45 8 108 57 127 98 95 199 -230 620 -514 666 -78 13
-75 13 -123 -4z"/>
<path d="M5672 6875 c-67 -19 -101 -36 -131 -69 -20 -21 -31 -63 -68 -253 -56
-290 -61 -344 -39 -378 12 -18 104 -69 310 -172 317 -157 319 -158 430 -132
92 21 134 53 261 198 73 83 125 153 133 176 24 72 11 84 -338 328 -503 350
-463 328 -558 302z"/>
<path d="M3953 6508 c-55 -32 -304 -292 -332 -345 -36 -71 -161 -433 -161
-465 0 -66 25 -87 226 -193 635 -332 640 -335 683 -335 77 0 297 91 365 150
44 39 62 87 86 227 23 131 25 218 7 251 -6 12 -79 84 -162 159 -82 74 -239
217 -349 317 -109 99 -215 194 -235 209 -43 32 -97 43 -128 25z"/>
<path d="M7798 6303 c-67 -34 -167 -133 -197 -197 -46 -101 -49 -220 -5 -311
21 -46 27 -50 145 -99 126 -54 164 -83 198 -155 25 -54 26 -63 26 -226 -1
-133 -5 -194 -22 -280 -195 -990 -280 -1488 -359 -2095 -30 -235 -43 -602 -25
-692 16 -75 42 -108 87 -108 52 0 136 92 288 315 134 196 179 260 311 430 189
244 249 333 318 472 96 191 164 404 212 658 13 72 29 154 35 184 29 153 52
387 53 536 0 313 -53 574 -170 824 -151 326 -462 621 -792 751 l-49 19 -54
-26z"/>
<path d="M3072 5923 c-114 -267 -130 -310 -117 -319 23 -17 285 -137 290 -132
2 2 31 96 64 208 34 113 79 265 101 339 22 74 37 138 33 141 -5 4 -53 19 -108
34 -55 15 -107 29 -115 31 -12 4 -46 -64 -148 -302z"/>
<path d="M7081 6141 c-11 -11 -21 -33 -21 -48 1 -91 79 -285 175 -435 104
-161 181 -208 262 -158 45 27 56 54 49 114 -9 64 -78 271 -117 348 -60 118
-147 182 -265 194 -54 6 -64 4 -83 -15z"/>
<path d="M6646 5970 c-91 -53 -401 -256 -448 -293 -42 -33 -109 -125 -138
-189 -11 -24 -20 -63 -20 -89 0 -126 179 -264 430 -332 183 -49 595 -147 617
-147 37 0 53 11 74 52 32 63 45 181 32 296 -10 88 -20 121 -107 335 -52 130
-102 250 -110 266 -44 83 -131 141 -216 141 -35 0 -61 -9 -114 -40z"/>
<path d="M5278 5956 c-20 -8 -83 -38 -140 -67 -224 -115 -269 -216 -218 -481
23 -119 57 -194 107 -238 20 -18 128 -78 241 -133 l204 -102 77 0 c71 0 82 3
186 53 174 85 235 140 266 244 27 89 -7 350 -57 436 -36 60 -82 91 -303 201
-179 88 -199 96 -260 98 -39 2 -81 -3 -103 -11z"/>
<path d="M2934 5363 c-14 -32 -47 -112 -73 -178 l-46 -120 1 -140 c0 -77 4
-162 8 -189 l8 -49 175 7 c96 3 179 9 184 12 5 3 9 33 9 67 0 34 4 123 9 197
6 74 13 198 16 276 l7 140 -99 12 c-54 7 -115 15 -136 18 l-37 6 -26 -59z"/>
<path d="M7291 5353 c-19 -16 -24 -39 -41 -213 -25 -252 -25 -306 0 -347 64
-105 239 -89 287 26 18 42 47 369 38 420 -11 58 -49 86 -154 110 -111 25 -104
25 -130 4z"/>
<path d="M3435 5276 c-58 -36 -92 -98 -126 -233 -39 -157 -40 -223 -2 -276 16
-23 48 -51 73 -64 40 -20 264 -68 604 -129 88 -16 131 -9 186 28 96 66 108
257 21 345 -32 33 -349 220 -545 322 -76 40 -152 43 -211 7z"/>
<path d="M5928 5065 c-69 -25 -102 -61 -179 -192 -93 -158 -99 -172 -99 -232
0 -81 27 -139 94 -206 50 -50 276 -228 584 -461 118 -89 248 -98 363 -25 40
25 61 54 161 222 149 250 159 272 165 338 10 115 -64 230 -183 286 -31 15
-140 58 -243 97 -102 38 -257 96 -343 129 -170 64 -240 74 -320 44z"/>
<path d="M4805 5029 c-153 -23 -307 -100 -363 -181 -94 -137 -58 -346 89 -512
57 -64 188 -162 264 -196 326 -149 680 -100 782 108 24 49 28 68 27 142 -1
104 -26 184 -91 284 -74 117 -202 235 -318 293 -108 55 -270 81 -390 62z"/>
<path d="M2440 4701 c-155 -59 -346 -156 -465 -235 -111 -74 -277 -234 -343
-330 -254 -368 -256 -819 -6 -1318 90 -179 102 -190 169 -148 59 37 105 146
190 450 14 52 37 114 50 137 31 51 114 126 308 273 83 63 159 129 169 145 27
47 37 140 53 472 16 333 19 603 8 602 -5 0 -64 -22 -133 -48z"/>
<path d="M2874 4580 c-134 -31 -197 -241 -149 -492 31 -166 82 -275 158 -344
105 -94 186 -57 249 112 19 51 22 78 22 204 -1 129 -4 158 -32 262 -40 155
-73 216 -132 246 -46 23 -64 25 -116 12z"/>
<path d="M7250 4551 c-118 -36 -189 -112 -285 -304 -85 -170 -92 -203 -47
-243 52 -48 208 -144 234 -144 14 0 38 10 52 21 35 27 286 527 286 569 0 79
-131 134 -240 101z"/>
<path d="M3625 4424 c-171 -7 -323 -17 -338 -23 -15 -6 -36 -25 -48 -43 -19
-31 -20 -43 -14 -193 4 -88 13 -189 21 -224 26 -113 106 -250 139 -237 41 15
702 512 721 541 41 63 19 155 -42 181 -37 16 -19 16 -439 -2z"/>
<path d="M5695 4197 c-22 -13 -87 -57 -145 -98 -58 -41 -136 -96 -173 -123
-37 -26 -79 -64 -92 -84 -36 -55 -57 -154 -53 -243 4 -89 1 -85 236 -349 162
-181 194 -204 278 -204 60 0 86 15 205 121 41 38 130 117 196 176 97 87 126
119 143 160 27 63 30 149 6 195 -15 29 -312 359 -377 419 -61 55 -157 68 -224
30z"/>
<path d="M4238 4170 c-53 -16 -87 -50 -125 -127 -37 -74 -38 -81 -38 -182 0
-129 21 -194 94 -291 55 -72 117 -123 210 -169 156 -79 341 -82 489 -7 146 74
249 248 213 359 -25 75 -100 127 -390 271 -303 151 -368 172 -453 146z"/>
<path d="M6712 3822 c-171 -68 -284 -325 -201 -459 61 -98 216 -79 334 41 80
81 155 225 155 296 0 89 -71 141 -191 139 -30 0 -73 -8 -97 -17z"/>
<path d="M3719 3761 c-14 -4 -36 -14 -50 -21 -42 -23 -369 -251 -369 -258 0
-6 181 -254 299 -411 l18 -25 55 45 c104 83 293 259 316 293 31 46 48 139 33
192 -16 60 -68 131 -115 159 -46 27 -142 41 -187 26z"/>
<path d="M2985 3643 c-110 -43 -125 -55 -125 -103 0 -39 162 -549 187 -586 8
-13 35 -33 60 -45 44 -21 47 -22 99 -5 80 25 138 53 158 75 26 28 23 85 -13
232 -35 148 -53 191 -134 328 -57 95 -101 142 -132 140 -5 0 -50 -16 -100 -36z"/>
<path d="M5127 3406 c-91 -47 -191 -119 -222 -160 -34 -44 -32 -92 5 -166 35
-69 144 -202 258 -314 l81 -79 58 39 c93 63 147 122 164 179 18 62 15 151 -6
213 -24 73 -138 273 -166 295 -48 35 -96 33 -172 -7z"/>
<path d="M6162 3240 c-87 -24 -217 -90 -277 -141 -69 -57 -141 -144 -173 -209
-21 -42 -27 -70 -27 -118 0 -59 2 -66 32 -92 112 -100 388 1 591 215 155 163
189 316 80 354 -46 16 -154 12 -226 -9z"/>
<path d="M4055 3216 c-93 -19 -92 -18 -197 -181 -177 -275 -191 -300 -195
-339 -6 -52 13 -77 106 -139 193 -130 292 -163 345 -114 31 28 232 422 242
473 16 85 -50 270 -106 299 -34 18 -111 18 -195 1z"/>
<path d="M4551 3035 c-54 -17 -98 -58 -112 -105 -25 -88 -66 -372 -59 -406 16
-70 98 -127 185 -127 62 0 321 73 380 107 52 31 79 83 72 136 -5 40 -117 288
-150 333 -12 15 -43 38 -71 52 -41 20 -64 25 -125 24 -42 0 -96 -6 -120 -14z"/>
<path d="M3293 2870 c-17 -10 -37 -28 -43 -39 -19 -37 -30 -121 -31 -253 -1
-115 1 -133 18 -157 26 -35 73 -50 159 -50 102 -1 117 19 138 191 18 150 15
189 -20 239 -59 85 -149 113 -221 69z"/>
<path d="M6430 2771 c-19 -15 -109 -86 -200 -157 -349 -273 -524 -424 -565
-488 -18 -28 -21 -54 -26 -306 -8 -353 -6 -347 -164 -545 -167 -210 -226 -339
-181 -400 11 -16 22 -17 82 -12 38 3 116 15 173 27 490 99 847 368 988 740
111 296 99 672 -35 1088 -14 45 -29 82 -32 82 -3 -1 -21 -13 -40 -29z"/>
<path d="M5280 2635 c-341 -229 -357 -241 -366 -290 -10 -58 13 -114 69 -167
67 -62 128 -92 169 -84 17 3 72 31 122 62 50 31 164 101 253 156 89 54 174
113 189 131 23 27 26 38 22 83 -4 42 -14 66 -53 123 -68 100 -85 114 -147 119
l-53 4 -205 -137z"/>
<path d="M3615 2389 c-65 -18 -101 -77 -111 -177 -4 -46 -1 -63 15 -89 37 -59
35 -59 416 -149 194 -46 224 -48 270 -18 40 26 57 70 62 158 5 89 -10 128 -62
162 -20 13 -529 126 -554 123 -3 0 -20 -5 -36 -10z"/>
<path d="M4580 2277 c-111 -26 -215 -103 -256 -191 -16 -32 -16 -35 5 -64 27
-39 121 -101 180 -119 136 -43 335 51 372 176 21 69 -16 153 -83 187 -40 21
-151 26 -218 11z"/>
<path d="M3416 2003 c-68 -180 -113 -425 -102 -560 10 -113 30 -176 67 -207
67 -57 115 -29 336 198 98 100 220 228 270 283 l93 100 -108 6 c-180 9 -333
71 -453 185 -37 34 -69 62 -72 62 -3 0 -17 -30 -31 -67z"/>
</g>
</svg>
