<?xml version="1.0" standalone="no"?>
<!DOCTYPE svg PUBLIC "-//W3C//DTD SVG 20010904//EN"
 "http://www.w3.org/TR/2001/REC-SVG-20010904/DTD/svg10.dtd">
<svg version="1.0" xmlns="http://www.w3.org/2000/svg"
 width="1026.000000pt" height="752.000000pt" viewBox="0 0 1026.000000 752.000000"
 preserveAspectRatio="xMidYMid meet">
<metadata>
Created by potrace 1.16, written by Peter Selinger 2001-2019
</metadata>
<g transform="translate(0.000000,752.000000) scale(0.100000,-0.100000)"
fill="#000000" stroke="none">
<path d="M918 6982 c-73 -45 -96 -217 -72 -538 8 -104 18 -216 24 -249 5 -33
16 -100 24 -150 7 -49 21 -128 30 -175 14 -79 20 -108 45 -222 13 -58 60 -237
70 -268 5 -14 17 -52 26 -85 9 -33 21 -69 25 -80 5 -11 28 -76 50 -145 22 -69
45 -134 50 -145 5 -11 23 -56 40 -100 17 -44 37 -93 45 -110 7 -16 28 -61 45
-100 161 -356 417 -792 599 -1019 23 -29 28 -42 21 -56 -24 -46 -64 -341 -91
-685 -22 -279 9 -787 60 -1000 6 -22 17 -71 26 -110 27 -116 48 -179 86 -260
41 -88 76 -117 142 -123 132 -11 211 82 347 403 4 11 15 36 24 57 9 20 16 41
16 47 0 6 4 19 9 29 12 24 23 51 77 182 25 63 54 133 64 155 10 22 34 81 55
130 20 50 57 132 81 183 24 52 44 97 44 100 0 4 7 15 15 26 13 18 15 18 42 -2
50 -35 208 -117 378 -197 165 -78 251 -108 588 -207 46 -14 42 -9 111 -141
151 -291 338 -540 611 -812 110 -110 241 -232 290 -270 50 -38 95 -73 100 -78
37 -28 128 -87 135 -87 6 0 10 -4 10 -9 0 -8 181 -101 260 -134 156 -64 266
-69 305 -14 29 42 14 246 -35 462 -5 22 -16 72 -24 110 -8 39 -19 91 -25 117
-15 68 -81 338 -91 373 -5 17 -23 89 -40 160 -17 72 -35 146 -40 165 -5 19
-12 46 -16 59 -7 28 8 41 48 41 15 0 47 5 70 10 24 6 86 19 138 30 155 32 333
78 385 99 11 5 49 17 85 27 36 9 70 21 75 25 6 4 26 10 45 14 32 7 41 11 90
35 11 5 25 10 31 10 6 0 26 7 45 15 30 13 67 29 129 55 51 21 94 39 145 61 63
27 395 194 455 229 90 52 425 222 530 270 114 51 127 57 182 74 59 18 227 22
285 6 48 -14 192 -27 460 -42 273 -15 572 3 678 41 144 52 184 70 242 108 137
90 228 247 262 452 l6 33 -37 -7 c-77 -14 -238 -6 -303 15 -14 4 -52 15 -85
25 -33 9 -68 20 -77 26 -10 5 -24 9 -33 9 -8 0 -31 7 -52 16 -122 53 -285 108
-424 144 -46 11 -102 26 -124 33 -25 7 -119 12 -244 13 l-204 1 -20 44 c-156
342 -411 759 -464 759 -16 0 -129 -125 -171 -190 -94 -146 -131 -263 -138
-435 -13 -306 -69 -407 -264 -468 -111 -36 -337 -25 -505 24 -86 25 -253 83
-303 105 -29 13 -54 24 -56 24 -14 0 -341 159 -431 210 -33 18 -67 37 -75 41
-8 4 -74 44 -147 88 -73 45 -135 81 -139 81 -4 0 -22 11 -40 25 -18 14 -36 25
-41 25 -4 0 -26 14 -48 31 l-40 30 3 94 c4 92 3 94 -31 147 -55 87 -124 135
-312 217 -27 12 -68 31 -90 41 -22 10 -85 33 -140 51 -55 18 -109 35 -120 39
-11 4 -74 27 -140 50 -103 36 -325 143 -459 219 -72 41 -510 314 -581 361 -89
60 -313 200 -320 200 -3 0 -22 11 -43 23 -47 30 -217 120 -497 262 -215 109
-374 192 -485 252 -30 17 -100 54 -155 83 -55 28 -104 56 -110 60 -5 4 -32 20
-60 35 -132 73 -308 190 -378 252 -168 146 -252 183 -414 183 -75 0 -105 -5
-125 -18z m237 -857 c44 -68 83 -125 88 -125 4 0 7 -4 7 -9 0 -17 374 -529
509 -696 247 -306 550 -620 781 -810 25 -20 67 -55 94 -78 27 -23 56 -46 65
-51 9 -5 18 -12 21 -16 18 -22 480 -340 494 -340 3 0 64 -36 135 -80 127 -79
128 -80 134 -122 9 -63 35 -226 46 -278 5 -25 14 -72 21 -104 32 -163 159
-603 199 -691 5 -11 17 -42 26 -70 20 -59 27 -78 48 -125 9 -19 12 -39 7 -43
-7 -8 -98 18 -185 52 -11 5 -58 23 -105 41 -129 49 -215 88 -325 150 -33 19
-73 41 -90 49 -73 37 -384 244 -405 270 -3 3 -30 26 -60 51 -130 106 -323 295
-439 430 -108 126 -305 394 -341 465 -3 6 -23 37 -44 70 -70 107 -128 210
-232 415 -75 148 -154 316 -154 326 0 3 -7 21 -15 40 -8 19 -22 49 -30 68 -8
19 -15 39 -15 45 0 6 -4 19 -9 29 -20 38 -41 91 -41 104 0 8 -4 18 -8 23 -4 6
-16 35 -26 65 -10 30 -21 64 -26 75 -23 54 -89 290 -116 415 -30 135 -63 305
-74 375 -5 33 -14 89 -19 125 -6 36 -11 68 -11 73 0 23 23 -7 95 -118z m4165
-3021 c57 -16 80 -22 195 -48 156 -36 235 -52 405 -81 110 -19 172 -28 290
-44 181 -24 250 -31 395 -41 196 -13 255 -20 255 -28 0 -8 -139 -75 -295 -143
-55 -23 -104 -47 -110 -51 -5 -4 -15 -8 -23 -8 -8 0 -28 -6 -45 -14 -86 -38
-258 -98 -372 -131 -33 -9 -71 -21 -85 -26 -14 -4 -56 -15 -95 -24 -38 -9 -88
-20 -110 -25 -22 -5 -67 -15 -100 -21 -33 -6 -78 -15 -100 -19 -114 -23 -113
-23 -123 -3 -6 10 -15 43 -21 73 -30 153 -42 209 -51 250 -9 41 -25 114 -50
240 -5 25 -14 63 -19 85 -13 48 -14 75 -3 75 4 0 32 -7 62 -16z"/>
</g>
</svg>
